<?xml version="1.0" encoding="iso-8859-1"?>
<!-- Uploaded to: SVG Repo, www.svgrepo.com, Generator: SVG Repo Mixer Tools -->
<!DOCTYPE svg PUBLIC "-//W3C//DTD SVG 1.1//EN" "http://www.w3.org/Graphics/SVG/1.1/DTD/svg11.dtd">
<svg fill="#000000" version="1.1" id="Capa_1" xmlns="http://www.w3.org/2000/svg" xmlns:xlink="http://www.w3.org/1999/xlink" 
	 width="40px" height="30px" viewBox="0 0 381.555 381.556"
	 xml:space="preserve">
<g>
	<path d="M379.406,205.068C391.034,91.236,300.458,9.228,193.357,0.66C141.949-3.624,91.765,12.9,57.493,51.456
		c-18.36,20.808-36.108,50.184-43.452,80.784c-43.452,97.308,28.764,216.036,128.52,242.964
		C257.618,406.416,367.777,318.288,379.406,205.068z M302.293,265.656c-1.836,0.611-3.672,1.224-5.508,2.448
		c2.447-2.448,4.284-4.284,6.731-6.732C302.906,262.596,302.906,264.432,302.293,265.656z M69.733,186.096
		C110.125,147.54,162.145,120,197.03,75.936c3.06-1.224,6.731-2.448,10.403-3.06c3.061,23.256,6.12,47.124,2.448,70.38
		c-0.612,3.06,0.612,5.508,2.448,7.344c0.611,1.836,2.448,3.672,4.896,3.672c22.645-0.612,44.677-2.448,67.32-4.284
		c1.836,26.316,8.568,53.856,3.672,80.172c-3.06,15.3-51.408-3.672-66.096-1.224c-3.061-1.225-7.956,0-9.181,4.283
		c-3.06,11.017-1.224,23.256-0.611,34.885c0,4.896,0,10.403,0.611,15.3C161.533,255.864,104.617,232.608,69.733,186.096z"/>
</g>
</svg>